 <svg  version="1.0" xmlns="http://www.w3.org/2000/svg"  width="900.000000pt" height="555.000000pt" viewBox="0 0 900.000000 555.000000"  preserveAspectRatio="xMidYMid meet">  <g transform="translate(0.000000,555.000000) scale(0.100000,-0.100000)" fill="#306ef4" stroke="none"> <path d="M4435 5308 c-92 -32 -256 -102 -347 -149 -20 -10 -42 -19 -48 -19 -5 0 -33 -11 -62 -25 -28 -14 -57 -25 -62 -25 -6 0 -37 -13 -68 -29 -32 -16 -71 -32 -87 -36 -16 -3 -35 -13 -42 -21 -6 -8 -18 -14 -25 -14 -8 0 -45 -14 -82 -31 -211 -98 -241 -112 -334 -148 -42 -17 -84 -31 -92 -31 -9 0 -16 -4 -16 -9 0 -5 -10 -13 -22 -16 -13 -4 -52 -21 -88 -37 -110 -51 -196 -88 -205 -88 -4 0 -37 -14 -74 -31 -73 -35 -107 -50 -166 -74 -22 -9 -52 -23 -67 -31 -14 -7 -33 -14 -41 -14 -8 0 -20 -7 -27 -15 -7 -8 -20 -15 -30 -15 -10 0 -23 -7 -30 -15 -7 -8 -21 -15 -30 -15 -10 0 -31 -6 -47 -14 -15 -8 -46 -22 -68 -31 -22 -10 -53 -24 -68 -31 -16 -8 -35 -14 -42 -14 -12 0 -41 -12 -180 -75 -70 -31 -104 -45 -113 -45 -5 0 -15 -7 -22 -15 -7 -8 -16 -13 -20 -10 -9 6 -41 -7 -86 -34 -17 -10 -45 -22 -63 -26 -18 -4 -35 -13 -38 -21 -3 -8 -12 -14 -21 -14 -23 0 -105 -32 -120 -47 -7 -7 -21 -13 -31 -13 -9 0 -44 -13 -76 -30 -32 -16 -66 -30 -74 -30 -9 0 -25 -7 -35 -15 -11 -8 -29 -15 -40 -15 -12 0 -30 -7 -40 -15 -11 -8 -30 -15 -42 -15 -13 0 -25 -4 -28 -9 -3 -5 -18 -12 -33 -16 -16 -3 -55 -19 -88 -34 -109 -51 -133 -61 -147 -61 -8 0 -18 -4 -23 -9 -6 -5 -39 -21 -75 -36 -36 -15 -96 -42 -135 -60 -38 -18 -96 -44 -127 -59 -70 -32 -98 -66 -98 -118 0 -37 32 -98 52 -98 4 0 27 -14 50 -30 22 -17 49 -30 59 -30 10 0 21 -4 24 -10 3 -5 14 -10 24 -10 10 0 24 -6 30 -14 7 -8 24 -17 39 -20 15 -4 41 -13 57 -21 17 -7 48 -21 70 -30 22 -9 54 -23 70 -30 116 -52 147 -65 158 -65 6 0 23 -6 37 -13 14 -7 48 -21 75 -31 117 -43 174 -71 206 -99 l25 -22 -6 -795 -5 -795 -35 -55 c-19 -30 -40 -61 -47 -68 -7 -7 -13 -19 -13 -26 0 -8 -6 -19 -14 -25 -20 -17 -71 -126 -100 -216 -31 -96 -36 -237 -10 -301 48 -120 68 -149 142 -207 94 -72 218 -92 346 -58 80 22 135 59 192 128 49 60 70 151 61 259 -14 157 -26 232 -42 269 -10 22 -21 49 -26 60 -23 57 -82 181 -88 185 -4 3 -15 21 -25 40 -14 29 -17 61 -17 189 1 84 4 157 6 162 3 4 8 255 11 556 3 301 8 551 10 555 8 12 36 9 64 -5 14 -7 48 -21 75 -31 56 -21 80 -31 175 -74 36 -16 76 -32 90 -36 30 -9 65 -23 103 -42 16 -8 36 -14 46 -14 9 0 26 -7 37 -15 10 -8 26 -15 34 -15 8 0 28 -7 44 -15 15 -8 34 -15 41 -15 7 0 18 -7 25 -15 7 -8 19 -15 27 -15 8 0 29 -6 46 -14 52 -22 111 -44 135 -51 12 -4 22 -11 22 -16 0 -5 8 -9 18 -9 9 0 44 -14 77 -30 33 -16 64 -30 68 -30 5 0 55 -22 111 -50 56 -27 108 -50 114 -50 7 0 20 -4 30 -10 36 -20 112 -50 126 -50 8 0 17 -4 20 -9 3 -5 18 -12 33 -16 15 -3 50 -17 78 -30 27 -13 61 -26 75 -30 14 -5 42 -19 62 -31 21 -13 44 -24 52 -24 8 0 41 -13 73 -29 32 -16 83 -39 113 -51 30 -12 78 -33 105 -46 28 -13 56 -24 64 -24 7 0 25 -6 39 -13 15 -8 43 -21 62 -29 19 -9 82 -38 140 -66 134 -63 186 -79 208 -65 19 12 19 9 -3 113 -11 55 -15 132 -15 290 1 231 8 275 49 327 32 39 115 103 134 103 8 0 20 7 27 15 7 8 17 15 23 15 15 0 385 178 497 239 19 11 57 30 83 42 l48 23 -23 18 c-13 10 -27 18 -31 18 -4 0 -29 9 -55 21 -26 11 -56 24 -67 29 -105 44 -466 221 -494 242 -13 10 -31 18 -40 18 -9 1 -41 20 -71 43 l-55 43 -5 115 c-3 62 -3 188 0 279 6 185 7 190 86 232 30 16 50 19 95 15 50 -4 69 -11 119 -39 8 -4 26 -13 40 -18 14 -6 32 -14 40 -18 8 -5 31 -17 50 -27 19 -10 42 -21 50 -26 50 -27 179 -89 184 -89 4 0 24 -11 46 -25 22 -14 44 -25 50 -25 5 0 54 -21 107 -46 54 -25 116 -53 138 -62 22 -8 51 -24 64 -34 13 -10 27 -18 32 -18 14 0 199 -87 277 -130 9 -5 40 -19 67 -31 28 -12 84 -37 125 -56 41 -20 84 -39 95 -44 11 -5 27 -13 35 -19 8 -5 38 -19 65 -30 28 -12 64 -27 80 -35 17 -7 48 -21 70 -30 43 -17 50 -21 135 -58 63 -28 140 -99 160 -147 34 -82 -30 -170 -182 -248 -42 -22 -89 -47 -105 -55 -72 -39 -361 -177 -370 -177 -6 0 -13 -4 -15 -8 -1 -5 -64 -38 -138 -74 -256 -125 -465 -230 -612 -306 -213 -112 -231 -122 -245 -140 -16 -22 -16 -60 0 -92 11 -21 19 -24 47 -22 19 2 58 15 86 28 28 13 54 24 59 24 4 0 52 23 107 50 55 28 104 50 109 50 6 0 37 13 71 30 33 16 68 30 78 30 10 0 31 6 47 14 55 29 101 46 121 46 11 0 25 7 32 15 7 8 20 15 29 15 18 0 107 32 117 43 4 4 14 7 22 7 8 0 33 9 56 19 23 11 59 27 81 36 22 9 52 23 67 31 14 7 33 14 41 14 9 0 30 8 49 17 18 9 45 22 60 30 14 7 34 13 44 13 9 0 25 6 33 14 9 7 44 24 79 36 34 13 65 27 68 31 3 5 12 9 20 9 8 0 44 14 79 30 35 17 70 30 77 30 7 0 39 13 73 29 84 41 134 61 149 61 7 0 33 11 57 23 24 13 58 27 74 31 17 4 44 13 60 21 63 29 103 45 113 45 10 0 170 69 267 115 28 13 62 27 77 31 15 3 32 12 39 20 6 8 19 14 29 14 10 0 37 11 61 24 24 13 58 27 76 31 17 3 37 13 44 21 6 8 15 14 20 14 4 0 38 14 76 31 37 17 82 37 100 45 17 8 35 14 41 14 5 0 15 7 22 15 7 8 21 15 32 15 11 0 41 11 67 24 25 14 69 34 96 46 28 12 77 35 111 51 33 16 65 29 71 29 5 0 30 11 54 23 24 13 56 27 71 30 38 10 109 60 136 96 32 43 30 104 -4 134 -33 29 -104 67 -126 67 -9 0 -20 5 -23 10 -3 6 -13 10 -22 10 -15 0 -65 19 -116 46 -16 8 -34 14 -40 14 -6 0 -38 13 -71 29 -34 16 -86 39 -116 51 -30 13 -77 33 -105 45 -27 13 -84 38 -125 56 -41 18 -82 39 -91 46 -8 7 -24 13 -33 13 -10 0 -30 6 -44 14 -15 7 -49 23 -77 35 -27 12 -58 26 -67 32 -10 5 -26 9 -36 9 -10 0 -27 7 -38 15 -10 8 -26 15 -35 15 -9 0 -22 7 -29 15 -7 8 -25 15 -39 15 -15 0 -36 7 -47 15 -10 8 -27 15 -37 15 -10 0 -20 6 -23 14 -3 8 -23 17 -45 21 -21 4 -39 11 -39 15 0 5 -16 12 -35 16 -19 3 -35 10 -35 15 0 5 -9 9 -21 9 -11 0 -33 7 -47 14 -15 8 -45 22 -67 31 -78 32 -142 59 -208 89 -17 8 -57 25 -87 37 -30 11 -83 34 -116 50 -34 16 -67 29 -74 29 -7 0 -42 14 -79 31 -36 17 -77 36 -91 41 -14 5 -38 16 -53 24 -16 8 -34 14 -42 14 -7 0 -18 7 -25 15 -7 8 -19 15 -27 15 -8 0 -35 9 -61 21 -26 11 -58 25 -72 31 -14 5 -38 16 -55 23 -16 8 -48 21 -70 30 -22 9 -53 23 -68 31 -16 8 -33 14 -38 14 -9 0 -36 11 -134 55 -16 7 -41 17 -55 23 -14 6 -54 24 -90 40 -61 29 -141 63 -185 81 -11 5 -40 18 -65 29 -25 11 -64 26 -88 33 -23 7 -47 18 -53 26 -6 7 -22 13 -35 13 -12 0 -29 7 -38 15 -8 8 -23 15 -33 15 -11 0 -28 7 -39 15 -10 8 -29 15 -41 15 -12 0 -24 4 -27 9 -4 5 -27 19 -54 31 -26 12 -60 27 -77 35 -16 7 -46 20 -65 29 -19 8 -56 24 -82 35 -26 12 -56 21 -67 21 -11 0 -23 5 -26 10 -8 13 -70 11 -110 -2z m3999 -1893 c23 -17 13 -34 -11 -19 -19 12 -29 34 -16 34 4 0 17 -7 27 -15z"/> <path d="M2430 2103 c0 -16 0 -259 0 -541 0 -453 2 -518 17 -545 9 -18 19 -34 22 -37 3 -3 17 -21 30 -40 22 -32 119 -102 201 -145 19 -10 42 -22 50 -26 8 -5 26 -14 40 -20 28 -11 163 -75 255 -120 33 -16 63 -29 67 -29 4 0 19 -5 35 -12 60 -24 129 -47 143 -48 8 0 27 -6 42 -14 14 -8 46 -17 70 -21 24 -3 52 -10 63 -15 36 -16 180 -53 260 -66 17 -3 59 -11 95 -19 272 -59 378 -69 695 -69 243 1 492 19 523 38 7 4 44 11 84 16 96 13 274 51 413 90 44 12 96 26 115 30 19 4 46 12 60 18 14 6 72 25 130 42 58 18 119 38 135 45 17 7 41 18 55 23 127 54 357 167 370 183 3 3 22 14 43 24 52 24 152 125 176 177 19 41 20 72 25 566 3 437 2 524 -9 529 -8 2 -36 -5 -62 -18 -51 -23 -84 -38 -148 -64 -43 -18 -99 -43 -127 -56 -10 -5 -23 -9 -30 -9 -7 -1 -31 -9 -53 -20 -22 -11 -48 -19 -57 -20 -9 0 -19 -4 -22 -9 -3 -4 -34 -19 -68 -31 -35 -13 -72 -29 -83 -37 -11 -7 -26 -13 -35 -13 -8 0 -42 -14 -74 -30 -32 -17 -65 -30 -72 -30 -7 0 -25 -6 -41 -14 -35 -18 -56 -27 -168 -71 -49 -20 -105 -43 -122 -51 -18 -8 -48 -20 -65 -28 -18 -8 -62 -28 -98 -44 -36 -16 -83 -37 -105 -46 -22 -10 -52 -24 -67 -32 -14 -7 -35 -14 -46 -14 -11 0 -25 -7 -32 -15 -7 -8 -18 -15 -26 -15 -14 0 -68 -22 -116 -46 -14 -8 -33 -14 -41 -14 -9 0 -30 -8 -49 -17 -18 -9 -45 -22 -60 -30 -14 -7 -32 -13 -39 -13 -6 0 -35 -11 -63 -24 -61 -28 -119 -39 -204 -38 -65 1 -105 16 -254 93 -32 16 -66 29 -77 29 -10 0 -24 7 -31 15 -7 8 -20 15 -29 15 -21 0 -97 36 -106 50 -3 5 -15 10 -26 10 -18 0 -47 11 -146 56 -17 8 -34 14 -37 14 -4 0 -44 18 -88 40 -45 22 -90 40 -99 40 -9 0 -22 7 -29 15 -7 8 -17 15 -22 15 -5 0 -40 14 -76 31 -37 17 -89 40 -117 51 -27 11 -54 24 -60 29 -5 5 -15 9 -23 9 -13 0 -89 31 -124 50 -10 6 -23 10 -29 10 -11 0 -42 13 -145 61 -33 16 -66 29 -72 29 -6 0 -37 13 -69 29 -32 16 -93 45 -135 66 -43 20 -80 40 -83 45 -3 5 -19 12 -37 15 -17 4 -45 16 -62 26 -42 26 -56 24 -56 -8z"/> </g> </svg> 